HIERARCHY
ROOT Hips
{
	OFFSET 0.000000 35.082581 0.000000
	CHANNELS 6 Xposition Yposition Zposition Xrotation Yrotation Zrotation 
	JOINT Spine
	{
		OFFSET 0.000000 6.876099 0.125700
		CHANNELS 3 Xrotation Yrotation Zrotation
		JOINT Spine1
		{
			OFFSET 0.000000 5.730043 0.104720
			CHANNELS 3 Xrotation Yrotation Zrotation
			JOINT Spine1_split
			{
				OFFSET 0.000000 5.730043 0.104720
				CHANNELS 3 Xrotation Yrotation Zrotation
				JOINT Spine2
				{
					OFFSET 0.000000 5.730043 0.104720
					CHANNELS 3 Xrotation Yrotation Zrotation
					JOINT Neck
					{
						OFFSET 0.000000 10.314075 0.188496
						CHANNELS 3 Xrotation Yrotation Zrotation
						JOINT Head
						{
							OFFSET 0.000000 7.643700 -2.377400
							CHANNELS 3 Xrotation Yrotation Zrotation
							JOINT HeadTop_End
							{
								OFFSET 0.000000 43.788605 -13.619600
								CHANNELS 3 Xrotation Yrotation Zrotation
								End Site
								{
									OFFSET 0.000000 0.000000 0.000000
								}
							}
						}
					}
					JOINT LeftShoulder
					{
						OFFSET 2.196100 4.412489 0.087492
						CHANNELS 3 Xrotation Yrotation Zrotation
						JOINT LeftShoulder_split
						{
							OFFSET 2.196100 4.412489 0.087492
							CHANNELS 3 Xrotation Yrotation Zrotation
							JOINT LeftArm
							{
								OFFSET 8.771219 -2.981674 -0.026999
								CHANNELS 3 Xrotation Yrotation Zrotation
								JOINT LeftForeArm
								{
									OFFSET 8.512804 0.000000 -0.000000
									CHANNELS 3 Xrotation Yrotation Zrotation
									JOINT LeftHand
									{
										OFFSET 18.484802 0.000000 -0.000000
										CHANNELS 3 Xrotation Yrotation Zrotation
										JOINT LeftHandThumb1
										{
											OFFSET 2.499420 -1.158070 2.653252
											CHANNELS 3 Xrotation Yrotation Zrotation
											JOINT LeftHandThumb2
											{
												OFFSET 2.370079 -1.368366 1.368366
												CHANNELS 3 Xrotation Yrotation Zrotation
												JOINT LeftHandThumb3
												{
													OFFSET 2.676727 -1.545410 1.545409
													CHANNELS 3 Xrotation Yrotation Zrotation
													JOINT LeftHandThumb4
													{
														OFFSET 1.692226 -0.977005 0.977007
														CHANNELS 3 Xrotation Yrotation Zrotation
														End Site
														{
															OFFSET 0.000000 0.000000 0.000000
														}
													}
												}
											}
										}
										JOINT LeftHandIndex1
										{
											OFFSET 7.924831 -0.457527 2.345128
											CHANNELS 3 Xrotation Yrotation Zrotation
											JOINT LeftHandIndex2
											{
												OFFSET 3.643303 0.000000 0.000000
												CHANNELS 3 Xrotation Yrotation Zrotation
												JOINT LeftHandIndex3
												{
													OFFSET 3.810799 0.000000 0.000000
													CHANNELS 3 Xrotation Yrotation Zrotation
													JOINT LeftHandIndex4
													{
														OFFSET 2.403702 0.000000 0.000000
														CHANNELS 3 Xrotation Yrotation Zrotation
														End Site
														{
															OFFSET 0.000000 0.000000 0.000000
														}
													}
												}
											}
										}
										JOINT LeftHandMiddle1
										{
											OFFSET 8.563995 0.000000 -0.000000
											CHANNELS 3 Xrotation Yrotation Zrotation
											JOINT LeftHandMiddle2
											{
												OFFSET 3.861618 0.000000 0.000000
												CHANNELS 3 Xrotation Yrotation Zrotation
												JOINT LeftHandMiddle3
												{
													OFFSET 3.701603 0.000000 0.000000
													CHANNELS 3 Xrotation Yrotation Zrotation
													JOINT LeftHandMiddle4
													{
														OFFSET 2.322544 0.000000 0.000000
														CHANNELS 3 Xrotation Yrotation Zrotation
														End Site
														{
															OFFSET 0.000000 0.000000 0.000000
														}
													}
												}
											}
										}
										JOINT LeftHandRing1
										{
											OFFSET 8.426460 -0.424637 -3.286992
											CHANNELS 3 Xrotation Yrotation Zrotation
											JOINT LeftHandRing2
											{
												OFFSET 3.126408 0.000000 0.000000
												CHANNELS 3 Xrotation Yrotation Zrotation
												JOINT LeftHandRing3
												{
													OFFSET 3.085026 0.000000 0.000000
													CHANNELS 3 Xrotation Yrotation Zrotation
													JOINT LeftHandRing4
													{
														OFFSET 1.644005 0.000000 0.000000
														CHANNELS 3 Xrotation Yrotation Zrotation
														End Site
														{
															OFFSET 0.000000 0.000000 0.000000
														}
													}
												}
											}
										}
									}
								}
							}
						}
					}
					JOINT RightShoulder
					{
						OFFSET -2.196100 4.412496 0.070690
						CHANNELS 3 Xrotation Yrotation Zrotation
						JOINT RightShoulder_split
						{
							OFFSET -2.196100 4.412496 0.070690
							CHANNELS 3 Xrotation Yrotation Zrotation
							JOINT RightArm
							{
								OFFSET -8.771282 -2.981682 -0.094208
								CHANNELS 3 Xrotation Yrotation Zrotation
								JOINT RightForeArm
								{
									OFFSET -8.494598 0.000000 0.000000
									CHANNELS 3 Xrotation Yrotation Zrotation
									JOINT RightHand
									{
										OFFSET -18.483803 0.000000 0.000001
										CHANNELS 3 Xrotation Yrotation Zrotation
										JOINT RightHandThumb1
										{
											OFFSET -2.527351 -1.008072 2.575253
											CHANNELS 3 Xrotation Yrotation Zrotation
											JOINT RightHandThumb2
											{
												OFFSET -2.321518 -1.340328 1.340329
												CHANNELS 3 Xrotation Yrotation Zrotation
												JOINT RightHandThumb3
												{
													OFFSET -2.657753 -1.534454 1.534455
													CHANNELS 3 Xrotation Yrotation Zrotation
													JOINT RightHandThumb4
													{
														OFFSET -1.807510 -1.043568 1.043567
														CHANNELS 3 Xrotation Yrotation Zrotation
														End Site
														{
															OFFSET 0.000000 0.000000 0.000000
														}
													}
												}
											}
										}
										JOINT RightHandIndex1
										{
											OFFSET -8.811420 0.015533 2.887987
											CHANNELS 3 Xrotation Yrotation Zrotation
											JOINT RightHandIndex2
											{
												OFFSET -3.537502 0.000000 0.000000
												CHANNELS 3 Xrotation Yrotation Zrotation
												JOINT RightHandIndex3
												{
													OFFSET -3.356201 0.000000 0.000000
													CHANNELS 3 Xrotation Yrotation Zrotation
													JOINT RightHandIndex4
													{
														OFFSET -1.933098 0.000000 0.000000
														CHANNELS 3 Xrotation Yrotation Zrotation
														End Site
														{
															OFFSET 0.000000 0.000000 0.000000
														}
													}
												}
											}
										}
										JOINT RightHandMiddle1
										{
											OFFSET -8.178135 0.000000 0.000000
											CHANNELS 3 Xrotation Yrotation Zrotation
											JOINT RightHandMiddle2
											{
												OFFSET -3.901302 0.000000 0.000000
												CHANNELS 3 Xrotation Yrotation Zrotation
												JOINT RightHandMiddle3
												{
													OFFSET -3.909599 0.000000 0.000000
													CHANNELS 3 Xrotation Yrotation Zrotation
													JOINT RightHandMiddle4
													{
														OFFSET -2.376003 0.000000 0.000000
														CHANNELS 3 Xrotation Yrotation Zrotation
														End Site
														{
															OFFSET 0.000000 0.000000 0.000000
														}
													}
												}
											}
										}
										JOINT RightHandRing1
										{
											OFFSET -7.559013 0.014137 -2.865403
											CHANNELS 3 Xrotation Yrotation Zrotation
											JOINT RightHandRing2
											{
												OFFSET -3.449306 0.000000 0.000000
												CHANNELS 3 Xrotation Yrotation Zrotation
												JOINT RightHandRing3
												{
													OFFSET -3.362106 0.000000 0.000000
													CHANNELS 3 Xrotation Yrotation Zrotation
													JOINT RightHandRing4
													{
														OFFSET -2.076401 0.000000 0.000000
														CHANNELS 3 Xrotation Yrotation Zrotation
														End Site
														{
															OFFSET 0.000000 0.000000 0.000000
														}
													}
												}
											}
										}
									}
								}
							}
						}
					}
				}
			}
		}
	}
	JOINT LeftUpLeg
	{
		OFFSET 10.205400 -3.823500 0.155100
		CHANNELS 3 Xrotation Yrotation Zrotation
		JOINT LeftLeg
		{
			OFFSET 0.708757 -12.982077 0.567790
			CHANNELS 3 Xrotation Yrotation Zrotation
			JOINT LeftFoot
			{
				OFFSET -0.708756 -10.717838 -2.184338
				CHANNELS 3 Xrotation Yrotation Zrotation
				JOINT LeftToeBase
				{
					OFFSET 0.108149 -7.191104 7.560241
					CHANNELS 3 Xrotation Yrotation Zrotation
					JOINT LeftToe_End
					{
						OFFSET 0.070230 0.081724 4.490308
						CHANNELS 3 Xrotation Yrotation Zrotation
						End Site
						{
							OFFSET 0.000000 0.000000 0.000000
						}
					}
				}
			}
		}
	}
	JOINT RightUpLeg
	{
		OFFSET -10.205400 -3.823500 0.005500
		CHANNELS 3 Xrotation Yrotation Zrotation
		JOINT RightLeg
		{
			OFFSET -0.708756 -12.982134 0.610632
			CHANNELS 3 Xrotation Yrotation Zrotation
			JOINT RightFoot
			{
				OFFSET 0.708754 -10.717769 -1.945823
				CHANNELS 3 Xrotation Yrotation Zrotation
				JOINT RightToeBase
				{
					OFFSET -0.108140 -7.191069 7.372968
					CHANNELS 3 Xrotation Yrotation Zrotation
					JOINT RightToe_End
					{
						OFFSET -0.070227 0.081735 4.479403
						CHANNELS 3 Xrotation Yrotation Zrotation
						End Site
						{
							OFFSET 0.000000 0.000000 0.000000
						}
					}
				}
			}
		}
	}
}
MOTION
Frames: 4
Frame Time: 0.016667
1.734720 26.909149 -1.614169 3.691109 -55.309349 3.550674 10.428684 11.901028 -4.040992 3.762000 4.020634 -2.477473 0.000000 0.000000 0.000000 3.818227 3.984990 -2.462741 0.516758 1.074218 7.089728 -7.298615 30.311225 -5.053250 0.000001 -0.000000 0.000001 0.201627 -6.892845 -14.624135 0.000000 0.000000 0.000000 -24.181371 -39.117716 -26.205474 -2.022112 -73.632813 -1.555782 -5.774892 23.551641 40.520507 40.109890 -15.297173 -0.360471 5.639905 28.097805 11.338789 1.088574 40.896294 22.734037 -0.000001 -0.000001 -0.000007 6.882256 2.840031 -61.140507 8.247977 7.640056 -89.897878 2.146168 8.173419 -41.827795 0.000000 -0.000002 -0.000000 -2.345559 4.688880 -62.655245 8.754159 9.897085 -87.051232 1.995358 4.929282 -37.483368 0.000000 -0.000003 0.000003 -9.042505 10.045631 -60.766205 8.523948 9.508868 -66.892953 6.576524 9.896798 -70.385093 0.000002 0.000001 -0.000001 3.144291 20.729245 -9.731373 0.000000 0.000000 0.000000 -14.532884 28.739189 7.272884 -179.799348 72.546649 179.534145 -65.149520 13.409686 -51.164462 0.277459 -1.521473 -1.570532 7.169006 -41.689665 -15.773571 -4.517989 11.064509 4.674004 -0.000001 -0.000000 0.000001 6.412797 -12.738398 14.389477 9.941762 -7.465188 101.743263 4.405031 -9.947470 61.138847 0.000001 0.000001 -0.000001 2.653180 -11.302276 44.730885 9.916060 -9.880684 94.351147 8.462603 -8.530834 83.992271 -0.000001 -0.000002 0.000002 2.140175 -7.454439 61.764977 9.609236 -8.992459 89.388680 11.175505 -10.370879 97.638135 -0.000001 0.000000 -0.000002 -50.989008 -7.126909 32.411505 53.212187 -9.407335 0.352976 -3.825276 -4.337740 -26.572812 -1.836441 -0.000619 -0.000033 -0.000000 -0.000003 -0.000000 -30.998414 -18.096316 -50.239252 57.333537 18.917044 -1.987038 -28.469974 -10.346889 27.894650 -0.001651 -0.000370 0.000017 -0.000000 -0.000000 0.000000 
1.754670 26.972103 -1.609952 3.965476 -56.065502 3.703211 11.038620 12.240069 -4.613409 3.882947 4.155491 -2.595622 0.000000 0.000000 0.000000 3.940184 4.114869 -2.582868 0.077773 1.097567 7.089561 -9.455428 30.205890 -4.759084 -0.000001 0.000000 0.000000 0.273682 -7.175083 -13.814881 0.000000 0.000000 0.000000 -27.151313 -40.609323 -28.235271 -1.969241 -72.750141 -1.517586 -3.652092 23.449909 41.380660 40.109897 -15.297172 -0.360468 5.639904 28.097797 11.338791 1.088577 40.896287 22.734035 -0.000000 -0.000004 -0.000002 6.882263 2.840031 -61.140507 8.247974 7.640058 -89.897871 2.146164 8.173417 -41.827805 -0.000001 -0.000003 0.000002 -2.345554 4.688880 -62.655245 8.754159 9.897080 -87.051232 1.995353 4.929280 -37.483364 -0.000003 0.000004 -0.000001 -9.042505 10.045630 -60.766199 8.523946 9.508872 -66.892953 6.576525 9.896798 -70.385086 -0.000001 0.000000 -0.000001 2.514178 21.233552 -6.811744 0.000000 0.000000 0.000000 -5.943706 30.749939 2.272450 -179.151928 73.423810 179.050049 -67.159543 12.064832 -48.542660 0.277467 -1.521466 -1.570563 7.169040 -41.689719 -15.773485 -4.517993 11.064502 4.673969 -0.000002 -0.000006 -0.000001 6.412832 -12.738439 14.389542 9.941766 -7.465130 101.743256 4.405017 -9.947454 61.138881 0.000000 -0.000000 0.000001 2.653144 -11.302300 44.730916 9.916111 -9.880719 94.351202 8.462594 -8.530828 83.992216 -0.000003 0.000000 -0.000002 2.140162 -7.454463 61.765018 9.609285 -8.992474 89.388735 11.175555 -10.370855 97.638114 -0.000000 -0.000000 -0.000001 -50.547891 -6.772639 32.975989 53.211951 -9.643425 0.322031 -4.201333 -3.799397 -26.612215 -1.836439 -0.000623 -0.000034 -0.000000 0.000000 0.000000 -31.663217 -17.624916 -49.936080 57.197018 17.953610 -2.086672 -27.847742 -9.094174 28.277268 -0.001648 -0.000370 0.000017 0.000000 -0.000000 -0.000000 
1.786952 27.057491 -1.609547 4.227480 -56.946921 3.827016 11.623852 12.317624 -5.170551 4.041843 4.210475 -2.712405 0.000000 0.000000 0.000000 4.093326 4.173071 -2.703599 -0.418000 1.150576 7.039629 -11.340492 30.556528 -4.537705 0.000000 0.000000 0.000000 0.377109 -7.436394 -12.890563 0.000000 0.000000 0.000000 -30.060667 -41.102091 -29.619395 -2.081449 -72.317346 -1.635733 -1.913092 23.426588 42.068160 40.109890 -15.297172 -0.360468 5.639904 28.097805 11.338790 1.088574 40.896287 22.734034 -0.000001 -0.000002 -0.000000 6.882256 2.840033 -61.140507 8.247979 7.640057 -89.897878 2.146161 8.173415 -41.827798 -0.000000 -0.000001 0.000000 -2.345560 4.688886 -62.655245 8.754161 9.897083 -87.051232 1.995364 4.929278 -37.483375 -0.000001 -0.000000 -0.000002 -9.042503 10.045632 -60.766205 8.523947 9.508872 -66.892953 6.576525 9.896793 -70.385086 0.000003 -0.000002 -0.000001 2.559597 21.019393 -6.830149 0.000000 0.000000 0.000000 -1.561710 33.072070 0.691369 -178.933799 75.268719 179.032126 -68.145945 10.673613 -45.251738 0.277475 -1.521475 -1.570491 7.168981 -41.689641 -15.773576 -4.517990 11.064506 4.673956 -0.000003 -0.000000 0.000001 6.412858 -12.738420 14.389547 9.941757 -7.465180 101.743270 4.405038 -9.947446 61.138881 -0.000000 -0.000002 0.000000 2.653191 -11.302285 44.730970 9.916080 -9.880681 94.351147 8.462577 -8.530842 83.992195 -0.000002 0.000000 -0.000001 2.140179 -7.454475 61.765052 9.609267 -8.992474 89.388680 11.175484 -10.370857 97.638142 -0.000000 0.000002 -0.000001 -49.949894 -6.361155 33.601054 53.106466 -9.860197 0.287517 -4.576501 -3.182410 -26.671571 -1.836440 -0.000624 -0.000033 -0.000000 0.000004 0.000000 -32.461178 -17.181793 -49.435844 56.964423 19.012491 -2.063133 -27.162414 -9.485698 27.405823 -0.001646 -0.000370 0.000018 0.000000 -0.000000 0.000000 
1.829936 27.143280 -1.605627 4.500586 -58.110368 3.949229 12.181393 12.111025 -5.690787 4.167032 4.169346 -2.813601 0.000000 0.000000 0.000000 4.213592 4.134002 -2.809066 -0.982840 1.275624 6.942999 -12.696569 31.538801 -4.386469 0.000000 0.000000 -0.000000 0.469995 -7.672766 -11.958917 0.000000 0.000000 0.000000 -32.668341 -40.481111 -29.999294 -2.290927 -72.441970 -1.843381 -0.679259 23.671098 42.502928 40.109893 -15.297173 -0.360470 5.639903 28.097802 11.338791 1.088576 40.896284 22.734035 0.000001 -0.000002 -0.000006 6.882260 2.840031 -61.140507 8.247978 7.640056 -89.897871 2.146167 8.173419 -41.827795 -0.000001 -0.000003 0.000001 -2.345560 4.688880 -62.655245 8.754155 9.897082 -87.051232 1.995355 4.929278 -37.483371 0.000004 0.000004 -0.000000 -9.042507 10.045629 -60.766205 8.523947 9.508878 -66.892953 6.576518 9.896798 -70.385093 -0.000001 0.000001 0.000001 1.947810 20.533125 -7.026566 0.000000 0.000000 0.000000 -2.633532 35.447507 2.378803 -179.601327 76.885431 179.927086 -68.793310 7.356035 -41.081173 0.277468 -1.521472 -1.570568 7.169044 -41.689672 -15.773531 -4.517997 11.064509 4.673997 0.000003 -0.000005 0.000001 6.412770 -12.738409 14.389508 9.941770 -7.465206 101.743229 4.405040 -9.947415 61.138813 0.000002 -0.000002 -0.000000 2.653169 -11.302301 44.730905 9.916130 -9.880699 94.351188 8.462645 -8.530835 83.992223 -0.000001 0.000000 0.000003 2.140162 -7.454466 61.765011 9.609265 -8.992434 89.388728 11.175468 -10.370870 97.638094 0.000000 0.000001 -0.000000 -49.215106 -5.814152 34.426295 53.130911 -10.244658 0.237015 -5.141989 -2.317418 -26.719364 -1.836443 -0.000625 -0.000034 -0.000000 0.000004 0.000000 -33.386282 -16.477988 -48.845644 56.756126 18.977874 -2.119188 -26.264854 -8.847524 27.146058 -0.001651 -0.000371 0.000017 0.000000 -0.000000 -0.000000 
